<svg width="26" height="26" viewBox="0 0 26 26" fill="none" xmlns="http://www.w3.org/2000/svg">
<path fill-rule="evenodd" clip-rule="evenodd" d="M23.1232 21.1568C20.7401 24.1106 17.0907 26 13 26C8.90928 26 5.25986 24.1106 2.87683 21.1568C3.61534 21.6875 4.52117 22 5.5 22C7.98528 22 10 19.9853 10 17.5C10 15.0147 7.98528 13 5.5 13C3.01472 13 1 15.0147 1 17.5C1 17.7048 1.01368 17.9063 1.04017 18.1038C0.370615 16.5369 0 14.8117 0 13C0 10.8357 0.52887 8.79502 1.46442 7H8V6H2.04364C4.35377 2.39169 8.39758 0 13 0C17.6024 0 21.6462 2.39169 23.9564 6H18V7H24.5356C25.4711 8.79502 26 10.8357 26 13C26 14.8117 25.6294 16.5369 24.9598 18.1038C24.9863 17.9063 25 17.7048 25 17.5C25 15.0147 22.9853 13 20.5 13C18.0147 13 16 15.0147 16 17.5C16 19.9853 18.0147 22 20.5 22C21.4788 22 22.3847 21.6875 23.1232 21.1568Z" fill="#27313F"/>
</svg>
