<svg width="150" height="36" viewBox="0 0 150 36" fill="none" xmlns="http://www.w3.org/2000/svg">
<path d="M32.0167 29.294C28.7171 33.3839 23.6641 36 18 36C12.3359 36 7.28288 33.3839 3.9833 29.294C5.00585 30.0288 6.26008 30.4615 7.61539 30.4615C11.0565 30.4615 13.8462 27.6719 13.8462 24.2308C13.8462 20.7896 11.0565 18 7.61539 18C4.17423 18 1.38462 20.7896 1.38462 24.2308C1.38462 24.5143 1.40355 24.7934 1.44023 25.0669C0.513159 22.8973 0 20.5086 0 18C0 15.0033 0.732281 12.1777 2.02766 9.69231H11.0769V8.30769H2.82965C6.0283 3.31157 11.6274 0 18 0C24.3726 0 29.9717 3.31157 33.1703 8.30769H24.9231V9.69231H33.9723C35.2677 12.1777 36 15.0033 36 18C36 20.5086 35.4868 22.8973 34.5598 25.0669C34.5965 24.7934 34.6154 24.5143 34.6154 24.2308C34.6154 20.7896 31.8258 18 28.3846 18C24.9435 18 22.1538 20.7896 22.1538 24.2308C22.1538 27.6719 24.9435 30.4615 28.3846 30.4615C29.7399 30.4615 30.9941 30.0288 32.0167 29.294Z" fill="#27313F"/>
<path d="M60.16 12.752L60.032 16.56C60.032 17.872 60.1387 18.976 60.352 19.872C60.576 20.768 60.9867 21.3867 61.584 21.728C60.848 22.1867 60.1013 22.416 59.344 22.416C58.0107 22.416 57.1893 21.3387 56.88 19.184H53.616C53.4133 19.8773 53.312 20.4107 53.312 20.784C53.312 21.1467 53.3547 21.44 53.44 21.664C52.6507 22.1653 51.9467 22.416 51.328 22.416C50.3787 22.416 49.904 21.84 49.904 20.688C49.904 20.112 50.08 19.3867 50.432 18.512C50.7947 17.6373 51.2693 16.6347 51.856 15.504C52.4533 14.3733 52.832 13.6267 52.992 13.264C52.8747 12.688 52.7413 12.1227 52.592 11.568C53.1467 11.184 53.68 10.896 54.192 10.704C54.7147 10.5013 55.2747 10.4 55.872 10.4C56.48 10.4 56.9013 10.5333 57.136 10.8C57.744 10.5333 58.2453 10.4 58.64 10.4C59.0347 10.4 59.328 10.464 59.52 10.592C59.712 10.72 59.8507 10.9067 59.936 11.152C60.0853 11.5787 60.16 12.112 60.16 12.752ZM56.944 13.12H56.432C55.472 14.976 54.7573 16.4373 54.288 17.504H56.768C56.768 16.3413 56.8267 14.88 56.944 13.12ZM64.5363 22.416C63.8536 22.416 63.3629 22.2187 63.0643 21.824C62.7656 21.4187 62.6163 20.8213 62.6163 20.032C62.6163 19.232 62.9523 16.976 63.6243 13.264L62.7763 11.552C63.9816 10.7733 65.0803 10.384 66.0723 10.384C66.7336 10.384 67.1283 10.704 67.2563 11.344C68.3549 10.7147 69.4323 10.4 70.4883 10.4C71.1816 10.4 71.7896 10.56 72.3123 10.88C72.9309 11.2533 73.2403 11.8987 73.2403 12.816C73.2403 14.3307 72.4029 15.4293 70.7283 16.112C72.4349 16.4107 73.2883 17.3653 73.2883 18.976C73.2883 20.0213 72.8563 20.8533 71.9923 21.472C71.1283 22.0907 70.1576 22.4 69.0803 22.4C68.0136 22.4 67.1549 22.176 66.5043 21.728C65.8749 22.1867 65.2189 22.416 64.5363 22.416ZM69.5923 18.624C69.5923 18.1227 69.4429 17.7547 69.1443 17.52C68.8563 17.2853 68.4669 17.168 67.9763 17.168C67.4856 17.168 66.9363 17.2693 66.3283 17.472C66.1576 18.3787 66.0723 19.152 66.0723 19.792C66.5949 20.0373 67.1389 20.16 67.7043 20.16C68.2696 20.16 68.7229 20.0267 69.0643 19.76C69.4163 19.4933 69.5923 19.1147 69.5923 18.624ZM68.5523 12.512C68.1363 12.512 67.6883 12.592 67.2083 12.752C67.1443 13.168 66.9469 14.2347 66.6163 15.952C67.5016 15.888 68.2536 15.6747 68.8723 15.312C69.4909 14.9387 69.8003 14.4053 69.8003 13.712C69.8003 12.912 69.3843 12.512 68.5523 12.512ZM85.1865 10.4C86.5945 10.4 87.6505 10.5653 88.3545 10.896C89.0585 11.216 89.4105 11.7333 89.4105 12.448C89.4105 13.152 89.1918 13.6907 88.7545 14.064C88.3278 14.4267 87.8372 14.608 87.2825 14.608C86.7278 14.608 86.2265 14.4693 85.7785 14.192C85.3412 13.904 85.0372 13.5253 84.8665 13.056C84.4718 13.056 84.0932 13.1893 83.7305 13.456C83.3785 13.712 83.1545 14.048 83.0585 14.464C85.1705 14.976 86.6852 15.5733 87.6025 16.256C88.5198 16.9387 88.9785 17.8133 88.9785 18.88C88.9785 19.9467 88.4932 20.8 87.5225 21.44C86.5625 22.08 85.2612 22.4 83.6185 22.4C81.9865 22.4 80.8292 22.176 80.1465 21.728C79.4638 21.28 79.1225 20.688 79.1225 19.952C79.1225 19.216 79.3518 18.5387 79.8105 17.92C80.0345 18.4 80.4612 18.832 81.0905 19.216C81.7305 19.6 82.3598 19.792 82.9785 19.792C84.1198 19.792 84.8452 19.4293 85.1545 18.704C83.3838 18.4693 82.0345 17.9787 81.1065 17.232C80.1785 16.4747 79.7145 15.5627 79.7145 14.496C79.7145 13.7813 79.9065 13.1467 80.2905 12.592C80.6745 12.0267 81.1652 11.5947 81.7625 11.296C82.9358 10.6987 84.0772 10.4 85.1865 10.4ZM97.5941 19.936C97.5941 19.488 97.6688 18.752 97.8181 17.728H94.2021C94.0635 18.528 93.9941 19.0773 93.9941 19.376C93.9941 20.4107 94.1541 21.184 94.4741 21.696C93.8341 22.176 93.1675 22.416 92.4741 22.416C91.7808 22.416 91.2848 22.2187 90.9861 21.824C90.6875 21.4187 90.5381 20.8213 90.5381 20.032C90.5381 19.232 90.8741 16.976 91.5461 13.264L90.6981 11.552C91.9035 10.7733 93.0021 10.384 93.9941 10.384C94.8155 10.384 95.2261 10.8853 95.2261 11.888C95.2261 12.1867 95.0021 13.4987 94.5541 15.824H98.1381C98.1808 15.5573 98.3355 14.704 98.6021 13.264L97.7541 11.552C98.9595 10.7733 100.058 10.384 101.05 10.384C101.871 10.384 102.282 10.8853 102.282 11.888C102.282 12.2187 102.074 13.4507 101.658 15.584C101.253 17.7067 101.05 18.9707 101.05 19.376C101.05 20.4107 101.21 21.184 101.53 21.696C100.89 22.176 100.223 22.416 99.5301 22.416C98.8368 22.416 98.3408 22.2187 98.0421 21.824C97.7435 21.4187 97.5941 20.7893 97.5941 19.936ZM103.166 17.104C103.166 15.0773 103.731 13.456 104.862 12.24C105.992 11.0133 107.539 10.4 109.502 10.4C110.131 10.4 110.579 10.528 110.846 10.784C111.123 11.0293 111.262 11.4133 111.262 11.936C111.262 12.0107 111.251 12.1547 111.23 12.368C111.624 12.048 112.062 11.888 112.542 11.888C113.192 11.888 113.747 12.1813 114.206 12.768C114.675 13.344 114.91 14.1813 114.91 15.28C114.91 16.3787 114.734 17.3867 114.382 18.304C114.03 19.2213 113.56 19.9733 112.974 20.56C112.398 21.1467 111.736 21.6 110.99 21.92C110.254 22.24 109.491 22.4 108.702 22.4C106.995 22.4 105.646 21.9147 104.654 20.944C103.662 19.9627 103.166 18.6827 103.166 17.104ZM111.15 17.856C110.467 17.024 110.126 16.128 110.126 15.168C110.126 14.208 110.339 13.4347 110.766 12.848C110.574 12.816 110.382 12.8 110.19 12.8C109.432 12.8 108.776 13.0293 108.222 13.488C107.176 14.3413 106.654 15.5253 106.654 17.04C106.654 17.904 106.846 18.624 107.23 19.2C107.614 19.776 108.147 20.064 108.83 20.064C109.352 20.064 109.827 19.8613 110.254 19.456C110.691 19.04 110.99 18.5067 111.15 17.856ZM117.956 22.416C117.327 22.416 116.863 22.2187 116.564 21.824C116.266 21.4187 116.116 20.8213 116.116 20.032C116.116 19.232 116.452 16.976 117.124 13.264L116.276 11.552C117.482 10.7733 118.58 10.384 119.572 10.384C120.202 10.384 120.591 10.6827 120.74 11.28C121.946 11.248 123.45 10.976 125.252 10.464C125.338 10.816 125.38 11.1627 125.38 11.504C125.38 12.368 125.092 13.0187 124.516 13.456C123.951 13.8933 123.22 14.112 122.324 14.112C121.716 14.112 121.119 13.984 120.532 13.728C120.447 14.208 120.298 14.992 120.084 16.08C120.479 16.1547 120.815 16.192 121.092 16.192C121.53 16.1067 122.01 15.984 122.532 15.824C122.586 16.0053 122.612 16.304 122.612 16.72C122.612 17.1253 122.447 17.4507 122.116 17.696C121.786 17.9413 121.412 18.064 120.996 18.064C120.591 18.064 120.175 18.016 119.748 17.92C119.631 18.592 119.572 19.2267 119.572 19.824H122.164C122.975 19.7067 123.791 19.4987 124.612 19.2C124.676 19.392 124.708 19.6533 124.708 19.984C124.708 20.6133 124.522 21.1733 124.148 21.664C123.786 22.1547 123.279 22.4 122.628 22.4C122.287 22.4 121.786 22.3307 121.124 22.192C120.474 22.064 119.988 21.984 119.668 21.952C119.156 22.2613 118.586 22.416 117.956 22.416ZM131.687 10.4C133.095 10.4 134.151 10.5653 134.855 10.896C135.559 11.216 135.911 11.7333 135.911 12.448C135.911 13.152 135.692 13.6907 135.255 14.064C134.828 14.4267 134.337 14.608 133.783 14.608C133.228 14.608 132.727 14.4693 132.279 14.192C131.841 13.904 131.537 13.5253 131.367 13.056C130.972 13.056 130.593 13.1893 130.231 13.456C129.879 13.712 129.655 14.048 129.559 14.464C131.671 14.976 133.185 15.5733 134.102 16.256C135.02 16.9387 135.479 17.8133 135.479 18.88C135.479 19.9467 134.993 20.8 134.023 21.44C133.063 22.08 131.761 22.4 130.119 22.4C128.487 22.4 127.329 22.176 126.647 21.728C125.964 21.28 125.623 20.688 125.623 19.952C125.623 19.216 125.852 18.5387 126.311 17.92C126.535 18.4 126.961 18.832 127.591 19.216C128.231 19.6 128.86 19.792 129.479 19.792C130.62 19.792 131.345 19.4293 131.655 18.704C129.884 18.4693 128.535 17.9787 127.607 17.232C126.679 16.4747 126.215 15.5627 126.215 14.496C126.215 13.7813 126.407 13.1467 126.791 12.592C127.175 12.0267 127.665 11.5947 128.263 11.296C129.436 10.6987 130.577 10.4 131.687 10.4Z" fill="#27313F"/>
</svg>
