<svg width="196" height="52" viewBox="0 0 196 52" fill="none" xmlns="http://www.w3.org/2000/svg">
<path d="M46.1721 42.3136C41.4137 48.2211 34.1266 52 25.9583 52C17.7899 52 10.5028 48.2211 5.74442 42.3136C7.21906 43.375 9.02783 44 10.9823 44C15.9449 44 19.9679 39.9706 19.9679 35C19.9679 30.0294 15.9449 26 10.9823 26C6.01976 26 1.99679 30.0294 1.99679 35C1.99679 35.4095 2.0241 35.8127 2.07699 36.2077C0.740039 33.0738 0 29.6235 0 26C0 21.6715 1.05604 17.59 2.92414 14H15.9743V12H4.08071C8.69357 4.78337 16.7682 0 25.9583 0C35.1483 0 43.2229 4.78337 47.8358 12H35.9422V14H48.9924C50.8605 17.59 51.9165 21.6715 51.9165 26C51.9165 29.6235 51.1765 33.0738 49.8395 36.2077C49.8924 35.8127 49.9197 35.4095 49.9197 35C49.9197 30.0294 45.8968 26 40.9342 26C35.9716 26 31.9486 30.0294 31.9486 35C31.9486 39.9706 35.9716 44 40.9342 44C42.8887 44 44.6975 43.375 46.1721 42.3136Z" fill="white"/>
<path d="M86.7583 18.4196L86.5737 23.92C86.5737 25.8151 86.7275 27.4098 87.0352 28.704C87.3582 29.9982 87.9504 30.8919 88.8119 31.3849C87.7505 32.0474 86.6737 32.3787 85.5815 32.3787C83.6587 32.3787 82.4742 30.8225 82.0281 27.7102H77.321C77.0287 28.7117 76.8826 29.4821 76.8826 30.0213C76.8826 30.5452 76.9441 30.9689 77.0672 31.2924C75.9289 32.0166 74.9136 32.3787 74.0214 32.3787C72.6524 32.3787 71.9678 31.5467 71.9678 29.8827C71.9678 29.0507 72.2216 28.003 72.7293 26.7396C73.2523 25.4761 73.9368 24.0279 74.7829 22.3947C75.6443 20.7615 76.1904 19.683 76.4211 19.1591C76.2519 18.3271 76.0596 17.5105 75.8443 16.7093C76.6442 16.1547 77.4133 15.7387 78.1517 15.4613C78.9054 15.1686 79.713 15.0222 80.5744 15.0222C81.4512 15.0222 82.0589 15.2148 82.3973 15.6C83.2741 15.2148 83.9971 15.0222 84.5662 15.0222C85.1354 15.0222 85.5584 15.1147 85.8353 15.2996C86.1122 15.4844 86.3122 15.7541 86.4352 16.1084C86.6506 16.7247 86.7583 17.4951 86.7583 18.4196ZM82.1204 18.9511H81.382C79.9976 21.632 78.9669 23.7428 78.2901 25.2836H81.8666C81.8666 23.6041 81.9512 21.4933 82.1204 18.9511Z" fill="white"/>
<path d="M93.0694 32.3787C92.0849 32.3787 91.3773 32.0936 90.9466 31.5236C90.5158 30.9381 90.3005 30.0753 90.3005 28.9351C90.3005 27.7796 90.785 24.5209 91.7542 19.1591L90.5312 16.6862C92.2695 15.5615 93.8539 14.9991 95.2845 14.9991C96.2382 14.9991 96.8074 15.4613 96.9919 16.3858C98.5764 15.4767 100.13 15.0222 101.653 15.0222C102.653 15.0222 103.53 15.2533 104.283 15.7156C105.176 16.2548 105.622 17.187 105.622 18.512C105.622 20.6999 104.414 22.2868 101.999 23.2729C104.46 23.7043 105.691 25.0833 105.691 27.4098C105.691 28.9197 105.068 30.1215 103.822 31.0151C102.576 31.9087 101.176 32.3556 99.6224 32.3556C98.0841 32.3556 96.8458 32.032 95.9075 31.3849C94.9999 32.0474 94.0539 32.3787 93.0694 32.3787ZM100.361 26.9013C100.361 26.1772 100.145 25.6456 99.7147 25.3067C99.2993 24.9677 98.7379 24.7982 98.0303 24.7982C97.3227 24.7982 96.5305 24.9446 95.6537 25.2373C95.4075 26.547 95.2845 27.664 95.2845 28.5884C96.0382 28.9428 96.8227 29.12 97.638 29.12C98.4533 29.12 99.1071 28.9274 99.5993 28.5422C100.107 28.157 100.361 27.6101 100.361 26.9013ZM98.8609 18.0729C98.261 18.0729 97.615 18.1884 96.9227 18.4196C96.8304 19.0204 96.5459 20.5612 96.069 23.0418C97.3457 22.9493 98.4302 22.6412 99.3224 22.1173C100.215 21.5781 100.661 20.8077 100.661 19.8062C100.661 18.6507 100.061 18.0729 98.8609 18.0729Z" fill="white"/>
<path d="M122.85 15.0222C124.88 15.0222 126.403 15.261 127.418 15.7387C128.434 16.2009 128.941 16.9481 128.941 17.9804C128.941 18.9973 128.626 19.7754 127.995 20.3147C127.38 20.8385 126.672 21.1004 125.872 21.1004C125.072 21.1004 124.349 20.9001 123.703 20.4996C123.073 20.0836 122.634 19.5366 122.388 18.8587C121.819 18.8587 121.273 19.0513 120.75 19.4364C120.242 19.8062 119.919 20.2916 119.781 20.8924C122.827 21.632 125.011 22.4948 126.334 23.4809C127.657 24.467 128.318 25.7304 128.318 27.2711C128.318 28.8118 127.618 30.0444 126.218 30.9689C124.834 31.8933 122.957 32.3556 120.588 32.3556C118.235 32.3556 116.566 32.032 115.581 31.3849C114.597 30.7378 114.105 29.8827 114.105 28.8196C114.105 27.7564 114.435 26.7781 115.097 25.8844C115.42 26.5778 116.035 27.2018 116.943 27.7564C117.866 28.3111 118.773 28.5884 119.665 28.5884C121.311 28.5884 122.357 28.0646 122.803 27.0169C120.25 26.6779 118.304 25.9692 116.966 24.8907C115.627 23.7967 114.958 22.4794 114.958 20.9387C114.958 19.9064 115.235 18.9896 115.789 18.1884C116.343 17.3719 117.05 16.7479 117.912 16.3164C119.604 15.4536 121.25 15.0222 122.85 15.0222Z" fill="white"/>
<path d="M140.743 28.7964C140.743 28.1493 140.851 27.0862 141.066 25.6071H135.851C135.651 26.7627 135.551 27.5561 135.551 27.9876C135.551 29.4821 135.782 30.5991 136.244 31.3387C135.321 32.032 134.359 32.3787 133.359 32.3787C132.359 32.3787 131.644 32.0936 131.213 31.5236C130.783 30.9381 130.567 30.0753 130.567 28.9351C130.567 27.7796 131.052 24.5209 132.021 19.1591L130.798 16.6862C132.536 15.5615 134.121 14.9991 135.551 14.9991C136.736 14.9991 137.328 15.7233 137.328 17.1716C137.328 17.603 137.005 19.4981 136.359 22.8569H141.527C141.589 22.4717 141.812 21.2391 142.197 19.1591L140.974 16.6862C142.712 15.5615 144.296 14.9991 145.727 14.9991C146.911 14.9991 147.504 15.7233 147.504 17.1716C147.504 17.6492 147.204 19.4287 146.604 22.5102C146.019 25.5763 145.727 27.4021 145.727 27.9876C145.727 29.4821 145.958 30.5991 146.419 31.3387C145.496 32.032 144.535 32.3787 143.535 32.3787C142.535 32.3787 141.82 32.0936 141.389 31.5236C140.958 30.9381 140.743 30.029 140.743 28.7964Z" fill="white"/>
<path d="M148.778 24.7058C148.778 21.7784 149.593 19.4364 151.224 17.68C152.854 15.9081 155.085 15.0222 157.915 15.0222C158.823 15.0222 159.469 15.2071 159.853 15.5769C160.253 15.9313 160.453 16.4859 160.453 17.2409C160.453 17.3487 160.438 17.5567 160.407 17.8649C160.976 17.4027 161.607 17.1716 162.299 17.1716C163.237 17.1716 164.037 17.5953 164.699 18.4427C165.376 19.2747 165.714 20.4841 165.714 22.0711C165.714 23.6581 165.46 25.1141 164.953 26.4391C164.445 27.7641 163.768 28.8504 162.922 29.6978C162.091 30.5452 161.138 31.2 160.061 31.6622C159 32.1244 157.9 32.3556 156.761 32.3556C154.3 32.3556 152.354 31.6545 150.924 30.2524C149.493 28.835 148.778 26.9861 148.778 24.7058ZM160.292 25.792C159.307 24.5902 158.815 23.296 158.815 21.9093C158.815 20.5227 159.123 19.4056 159.738 18.5582C159.461 18.512 159.184 18.4889 158.907 18.4889C157.815 18.4889 156.869 18.8201 156.069 19.4827C154.562 20.7153 153.808 22.4255 153.808 24.6133C153.808 25.8613 154.085 26.9013 154.639 27.7333C155.192 28.5653 155.961 28.9813 156.946 28.9813C157.7 28.9813 158.384 28.6886 159 28.1031C159.63 27.5022 160.061 26.7318 160.292 25.792Z" fill="white"/>
<path d="M170.108 32.3787C169.2 32.3787 168.531 32.0936 168.1 31.5236C167.67 30.9381 167.454 30.0753 167.454 28.9351C167.454 27.7796 167.939 24.5209 168.908 19.1591L167.685 16.6862C169.423 15.5615 171.008 14.9991 172.438 14.9991C173.346 14.9991 173.907 15.4305 174.123 16.2933C175.861 16.2471 178.03 15.8542 180.629 15.1147C180.753 15.6231 180.814 16.1239 180.814 16.6169C180.814 17.8649 180.399 18.8047 179.568 19.4364C178.753 20.0681 177.699 20.384 176.407 20.384C175.53 20.384 174.669 20.1991 173.823 19.8293C173.7 20.5227 173.484 21.6551 173.177 23.2267C173.746 23.3345 174.23 23.3884 174.63 23.3884C175.261 23.2652 175.953 23.088 176.707 22.8569C176.784 23.1188 176.822 23.5502 176.822 24.1511C176.822 24.7366 176.584 25.2065 176.107 25.5609C175.63 25.9153 175.092 26.0924 174.492 26.0924C173.907 26.0924 173.307 26.0231 172.692 25.8844C172.523 26.8551 172.438 27.7719 172.438 28.6347H176.176C177.345 28.4652 178.522 28.1647 179.706 27.7333C179.799 28.0107 179.845 28.3881 179.845 28.8658C179.845 29.7748 179.576 30.5837 179.037 31.2924C178.514 32.0012 177.784 32.3556 176.845 32.3556C176.353 32.3556 175.63 32.2554 174.676 32.0551C173.738 31.8702 173.038 31.7547 172.577 31.7084C171.838 32.1553 171.015 32.3787 170.108 32.3787Z" fill="white"/>
<path d="M189.908 15.0222C191.939 15.0222 193.462 15.261 194.477 15.7387C195.492 16.2009 196 16.9481 196 17.9804C196 18.9973 195.685 19.7754 195.054 20.3147C194.439 20.8385 193.731 21.1004 192.931 21.1004C192.131 21.1004 191.408 20.9001 190.762 20.4996C190.132 20.0836 189.693 19.5366 189.447 18.8587C188.878 18.8587 188.332 19.0513 187.809 19.4364C187.301 19.8062 186.978 20.2916 186.84 20.8924C189.885 21.632 192.07 22.4948 193.393 23.4809C194.716 24.467 195.377 25.7304 195.377 27.2711C195.377 28.8118 194.677 30.0444 193.277 30.9689C191.893 31.8933 190.016 32.3556 187.647 32.3556C185.294 32.3556 183.625 32.032 182.64 31.3849C181.656 30.7378 181.163 29.8827 181.163 28.8196C181.163 27.7564 181.494 26.7781 182.156 25.8844C182.479 26.5778 183.094 27.2018 184.002 27.7564C184.924 28.3111 185.832 28.5884 186.724 28.5884C188.37 28.5884 189.416 28.0646 189.862 27.0169C187.309 26.6779 185.363 25.9692 184.025 24.8907C182.686 23.7967 182.017 22.4794 182.017 20.9387C182.017 19.9064 182.294 18.9896 182.848 18.1884C183.402 17.3719 184.109 16.7479 184.971 16.3164C186.663 15.4536 188.309 15.0222 189.908 15.0222Z" fill="white"/>
</svg>
