<svg width="28" height="28" viewBox="0 0 28 28" fill="none" xmlns="http://www.w3.org/2000/svg">
<path d="M13.125 2.43018C12.8382 2.49412 12.5593 2.58918 12.2932 2.71368C7.64516 4.88601 4.66666 10.9608 4.66666 16.1653C4.66666 21.112 8.38016 25.1767 13.125 25.6258V2.43018ZM14.875 25.6258C19.6198 25.1767 23.3333 21.1132 23.3333 16.1665C23.3333 15.6928 23.3088 15.2122 23.2598 14.7268L14.875 23.1128V25.6258ZM21.3033 8.37668C20.8555 7.53753 20.3323 6.7409 19.74 5.99668L14.875 10.8617V14.805L21.3033 8.37668ZM18.5593 4.70168C17.7235 3.88758 16.7599 3.216 15.7068 2.71368C15.4407 2.58918 15.1618 2.49412 14.875 2.43018V8.38718L18.5593 4.70168ZM22.092 10.0613L14.875 17.2795V20.6372L22.75 12.7622L22.904 12.6082C22.6986 11.7398 22.4271 10.8884 22.092 10.0613Z" fill="#27313F"/>
</svg>
